<svg width="134" height="37" viewBox="0 0 134 37" fill="none" xmlns="http://www.w3.org/2000/svg">
    <g clip-path="url(#clip0_2121_1994)">
        <path d="M1.97266 20.9395C2.97799 20.9395 3.79297 20.1245 3.79297 19.1192C3.79297 18.1139 2.97799 17.2989 1.97266 17.2989C0.967327 17.2989 0.152344 18.1139 0.152344 19.1192C0.152344 20.1245 0.967327 20.9395 1.97266 20.9395Z"
              fill="url(#paint0_linear_2121_1994)"/>
        <path d="M17.4187 36.3854C18.424 36.3854 19.239 35.5704 19.239 34.5651C19.239 33.5597 18.424 32.7447 17.4187 32.7447C16.4133 32.7447 15.5984 33.5597 15.5984 34.5651C15.5984 35.5704 16.4133 36.3854 17.4187 36.3854Z"
              fill="url(#paint1_linear_2121_1994)"/>
        <path d="M6.90683 11.0346C8.24727 11.0346 9.33391 9.94793 9.33391 8.60749C9.33391 7.26705 8.24727 6.1804 6.90683 6.1804C5.56638 6.1804 4.47974 7.26705 4.47974 8.60749C4.47974 9.94793 5.56638 11.0346 6.90683 11.0346Z"
              fill="url(#paint2_linear_2121_1994)"/>
        <path d="M27.7157 31.8436C29.0562 31.8436 30.1428 30.757 30.1428 29.4165C30.1428 28.0761 29.0562 26.9894 27.7157 26.9894C26.3753 26.9894 25.2886 28.0761 25.2886 29.4165C25.2886 30.757 26.3753 31.8436 27.7157 31.8436Z"
              fill="url(#paint3_linear_2121_1994)"/>
        <path d="M17.4187 6.70718C19.0942 6.70718 20.4525 5.34888 20.4525 3.67332C20.4525 1.99777 19.0942 0.639465 17.4187 0.639465C15.7431 0.639465 14.3848 1.99777 14.3848 3.67332C14.3848 5.34888 15.7431 6.70718 17.4187 6.70718Z"
              fill="url(#paint4_linear_2121_1994)"/>
        <path d="M35.8985 19.1192C35.8985 17.4436 34.5402 16.0853 32.8647 16.0853C31.1891 16.0853 29.8308 17.4436 29.8308 19.1192C29.8308 20.7947 31.1891 22.153 32.8647 22.153C34.5402 22.153 35.8985 20.7947 35.8985 19.1192Z"
              fill="url(#paint5_linear_2121_1994)"/>
        <path d="M30.2905 6.2475C28.8639 4.8209 26.5684 4.8209 25.1418 6.2475C25.0667 6.32259 24.9917 6.39767 24.938 6.47276C24.938 6.47276 6.19917 28.644 6.19917 28.6226C5.79157 29.0945 5.82375 29.8132 6.27426 30.2637C6.72476 30.7142 7.4327 30.7357 7.91538 30.3388C7.90466 30.3495 30.0652 11.5999 30.0652 11.5999C30.151 11.5356 30.2154 11.4712 30.2905 11.3961C31.7171 9.96953 31.7171 7.6741 30.2905 6.2475Z"
              fill="url(#paint6_linear_2121_1994)"/>
        <path d="M7.12163 30.6301C7.79185 30.6301 8.33517 30.0868 8.33517 29.4165C8.33517 28.7463 7.79185 28.203 7.12163 28.203C6.4514 28.203 5.90808 28.7463 5.90808 29.4165C5.90808 30.0868 6.4514 30.6301 7.12163 30.6301Z"
              fill="url(#paint7_linear_2121_1994)"/>
    </g>
    <path d="M49.5703 23.2402V9.52393H55.3995C56.2554 9.52393 57.0187 9.66132 57.6664 9.959C58.3141 10.2567 58.823 10.6689 59.1931 11.2184C59.5632 11.768 59.7483 12.4321 59.7483 13.1877V13.3938C59.7483 14.264 59.5401 14.9509 59.1237 15.4547C58.7073 15.9814 58.1984 16.3248 57.597 16.5538V16.8744C58.1059 16.8973 58.4992 17.0576 58.7999 17.3782C59.1006 17.6759 59.2625 18.1338 59.2625 18.7063V23.2631H57.1113V18.9811C57.1113 18.6376 57.0187 18.3399 56.8337 18.1338C56.6486 17.9277 56.3479 17.8133 55.9315 17.8133H51.6984V23.2402H49.5703ZM51.6984 15.9127H55.1451C55.9084 15.9127 56.5098 15.7295 56.9262 15.3402C57.3426 14.9509 57.5508 14.4242 57.5508 13.7602V13.5999C57.5508 12.9358 57.3426 12.4092 56.9262 12.0199C56.5098 11.6306 55.9084 11.4474 55.1219 11.4474H51.6753V15.9127H51.6984Z"
          fill="white"/>
    <path d="M65.833 23.5148C64.8383 23.5148 63.9825 23.3087 63.2422 22.8965C62.502 22.4844 61.9237 21.9119 61.5074 21.1562C61.091 20.4006 60.8828 19.5304 60.8828 18.5458V18.3168C60.8828 17.3093 61.091 16.4391 61.5074 15.6835C61.9237 14.9278 62.4789 14.3553 63.2191 13.9432C63.9593 13.531 64.7921 13.3249 65.7636 13.3249C66.712 13.3249 67.5216 13.531 68.2387 13.9432C68.9558 14.3553 69.4878 14.9278 69.9042 15.6606C70.2974 16.3933 70.5056 17.2406 70.5056 18.2252V18.9809H62.9878C63.0109 19.8281 63.3116 20.5151 63.8437 21.0189C64.3988 21.5226 65.0697 21.7745 65.9024 21.7745C66.6657 21.7745 67.244 21.6142 67.6373 21.2707C68.0305 20.9273 68.3312 20.538 68.5394 20.1029L70.228 20.9731C70.043 21.3394 69.7654 21.7287 69.4184 22.1409C69.0714 22.5531 68.6088 22.8965 68.0305 23.1713C67.4291 23.3774 66.712 23.5148 65.833 23.5148ZM62.9647 17.4238H68.3775C68.3312 16.691 68.0536 16.1185 67.591 15.7064C67.1052 15.2942 66.5038 15.0881 65.7173 15.0881C64.954 15.0881 64.3294 15.2942 63.8437 15.7064C63.381 16.1185 63.0803 16.691 62.9647 17.4238Z"
          fill="white"/>
    <path d="M75.385 23.5149C74.691 23.5149 74.0665 23.4004 73.5113 23.1714C72.9561 22.9424 72.5166 22.5989 72.1928 22.141C71.869 21.683 71.707 21.1334 71.707 20.4694C71.707 19.8053 71.869 19.2557 72.1928 18.8206C72.5166 18.3856 72.9561 18.0421 73.5113 17.836C74.0665 17.607 74.7142 17.4925 75.4312 17.4925H78.4152V16.8514C78.4152 16.2789 78.2533 15.8438 77.9063 15.5003C77.5594 15.1569 77.0273 14.9966 76.3103 14.9966C75.6163 14.9966 75.0843 15.1569 74.7142 15.4774C74.344 15.798 74.0896 16.2331 73.9739 16.7598L72.0771 16.1415C72.2391 15.6148 72.4935 15.134 72.8405 14.7218C73.1875 14.2867 73.6501 13.9432 74.2284 13.6913C74.8067 13.4395 75.5006 13.3021 76.3334 13.3021C77.6056 13.3021 78.6003 13.6226 79.3174 14.2638C80.0345 14.905 80.4046 15.8209 80.4046 16.9888V20.9731C80.4046 21.3624 80.5896 21.5685 80.9597 21.5685H81.7925V23.263H80.2658C79.8031 23.263 79.433 23.1485 79.1323 22.9195C78.8316 22.6905 78.6928 22.3699 78.6928 21.9578V21.8891H78.3921C78.2764 22.0952 78.1377 22.3242 77.9063 22.576C77.6982 22.8279 77.3743 23.0569 76.9811 23.263C76.611 23.4233 76.0558 23.5149 75.385 23.5149ZM75.6857 21.8662C76.4953 21.8662 77.1661 21.6372 77.675 21.1792C78.1839 20.7212 78.4384 20.0801 78.4384 19.2557V19.0496H75.5932C75.0611 19.0496 74.6216 19.1641 74.2747 19.3931C73.9508 19.6221 73.7889 19.9656 73.7889 20.4007C73.7889 20.8357 73.9508 21.2021 74.2978 21.454C74.6216 21.7288 75.0843 21.8662 75.6857 21.8662Z"
          fill="white"/>
    <path d="M87.2057 23.515C86.3961 23.515 85.6559 23.3089 84.9619 22.9197C84.268 22.5304 83.7128 21.9579 83.2964 21.2252C82.8801 20.4924 82.6719 19.5994 82.6719 18.546V18.2483C82.6719 17.2179 82.8801 16.3248 83.2964 15.5692C83.7128 14.8135 84.2448 14.264 84.9388 13.8518C85.6327 13.4625 86.3729 13.2564 87.2057 13.2564C87.8302 13.2564 88.3623 13.3251 88.8018 13.4854C89.2413 13.6457 89.5883 13.8518 89.8658 14.0808C90.1434 14.3327 90.3516 14.5845 90.4904 14.8364H90.8142V9.52393H92.8498V23.2631H90.8374V21.8892H90.5135C90.2591 22.3014 89.889 22.6907 89.3801 23.0342C88.8943 23.3547 88.1541 23.515 87.2057 23.515ZM87.784 21.7518C88.663 21.7518 89.4032 21.477 89.9815 20.9046C90.5598 20.3321 90.8374 19.5307 90.8374 18.5002V18.317C90.8374 17.2866 90.5598 16.4851 89.9815 15.9127C89.4032 15.3402 88.6861 15.0654 87.784 15.0654C86.905 15.0654 86.1879 15.3402 85.6096 15.9127C85.0313 16.4851 84.7537 17.2637 84.7537 18.317V18.5002C84.7537 19.5536 85.0313 20.355 85.6096 20.9046C86.1879 21.477 86.905 21.7518 87.784 21.7518Z"
          fill="white"/>
    <path d="M95.0497 27.1787V25.4613H96.8771C97.1546 25.4613 97.3628 25.4155 97.4785 25.3239C97.5942 25.2323 97.7098 25.0721 97.8023 24.866L98.1724 23.9729L94.0781 13.5769H96.2988L99.0283 21.0419H99.329L102.059 13.5769H104.279L99.5141 25.5987C99.3059 26.1483 99.0283 26.5376 98.6813 26.7895C98.3344 27.0413 97.8255 27.1558 97.1084 27.1558H95.0497V27.1787Z"
          fill="white"/>
    <path d="M110.593 23.5148C109.552 23.5148 108.627 23.3316 107.817 22.9652C107.008 22.5989 106.383 22.0493 105.921 21.3394C105.458 20.6296 105.227 19.7594 105.227 18.729V18.2481H107.355V18.729C107.355 19.6907 107.655 20.4235 108.234 20.9044C108.812 21.3852 109.598 21.6371 110.593 21.6371C111.588 21.6371 112.328 21.431 112.837 21.0189C113.346 20.6067 113.6 20.08 113.6 19.4159C113.6 18.9809 113.485 18.6374 113.253 18.3626C113.022 18.0878 112.675 17.8588 112.235 17.6985C111.796 17.5382 111.287 17.378 110.663 17.2406L109.922 17.0803C109.043 16.8742 108.257 16.6223 107.609 16.3017C106.961 16.004 106.453 15.5919 106.082 15.0652C105.735 14.5614 105.55 13.8974 105.55 13.0959C105.55 12.2944 105.759 11.5846 106.152 11.0121C106.545 10.4397 107.123 9.98168 107.817 9.684C108.511 9.38631 109.367 9.20312 110.339 9.20312C111.31 9.20312 112.166 9.36342 112.929 9.684C113.693 10.0046 114.294 10.4855 114.734 11.1266C115.173 11.7678 115.381 12.5692 115.381 13.531V14.2408H113.253V13.531C113.253 12.9356 113.138 12.4547 112.883 12.0884C112.629 11.722 112.305 11.4472 111.865 11.2869C111.426 11.1266 110.917 11.035 110.339 11.035C109.483 11.035 108.835 11.2182 108.372 11.5617C107.91 11.9052 107.679 12.386 107.679 13.0043C107.679 13.4165 107.771 13.76 107.979 14.0347C108.187 14.3095 108.488 14.5156 108.881 14.6988C109.275 14.8591 109.784 15.0194 110.362 15.1568L111.102 15.34C112.004 15.5461 112.791 15.7979 113.485 16.0956C114.179 16.3933 114.711 16.8284 115.104 17.3322C115.497 17.8359 115.705 18.5229 115.705 19.3472C115.705 20.1716 115.497 20.8815 115.081 21.4997C114.664 22.118 114.063 22.5989 113.3 22.9423C112.536 23.3545 111.634 23.5148 110.593 23.5148Z"
          fill="white"/>
    <path d="M121.927 23.5149C120.932 23.5149 120.076 23.3088 119.336 22.8966C118.596 22.4844 118.017 21.912 117.601 21.1563C117.185 20.4007 116.977 19.5305 116.977 18.5459V18.3169C116.977 17.3093 117.185 16.4392 117.601 15.6835C118.017 14.9279 118.573 14.3554 119.313 13.9432C120.053 13.531 120.886 13.325 121.857 13.325C122.806 13.325 123.615 13.531 124.332 13.9432C125.05 14.3554 125.582 14.9279 125.998 15.6606C126.391 16.3934 126.599 17.2406 126.599 18.2253V18.9809H119.082C119.105 19.8282 119.405 20.5151 119.937 21.0189C120.493 21.5227 121.163 21.7746 121.996 21.7746C122.759 21.7746 123.338 21.6143 123.731 21.2708C124.124 20.9273 124.425 20.538 124.633 20.103L126.322 20.9731C126.137 21.3395 125.859 21.7288 125.512 22.141C125.165 22.5531 124.703 22.8966 124.124 23.1714C123.523 23.3775 122.806 23.5149 121.927 23.5149ZM119.058 17.4238H124.471C124.425 16.6911 124.147 16.1186 123.685 15.7064C123.199 15.2942 122.598 15.0882 121.811 15.0882C121.048 15.0882 120.423 15.2942 119.937 15.7064C119.452 16.1186 119.174 16.6911 119.058 17.4238Z"
          fill="white"/>
    <path d="M130.021 23.2402C129.42 23.2402 128.957 23.057 128.61 22.7135C128.263 22.37 128.078 21.8891 128.078 21.2938V10.3711H130.114V13.5769H134V15.2943H130.114V20.9732C130.114 21.3625 130.299 21.5686 130.669 21.5686H133.699V23.2402H130.021Z"
          fill="white"/>
    <defs>
        <linearGradient id="paint0_linear_2121_1994" x1="0.799516" y1="35.7231" x2="34.4114" y2="2.09665"
                        gradientUnits="userSpaceOnUse">
            <stop offset="0.102083" stop-color="#17AEFF"/>
            <stop offset="0.440625" stop-color="#B263FE"/>
            <stop offset="0.89375" stop-color="#F97ACE"/>
        </linearGradient>
        <linearGradient id="paint1_linear_2121_1994" x1="0.799516" y1="35.7231" x2="34.4114" y2="2.09665"
                        gradientUnits="userSpaceOnUse">
            <stop offset="0.102083" stop-color="#17AEFF"/>
            <stop offset="0.440625" stop-color="#B263FE"/>
            <stop offset="0.89375" stop-color="#F97ACE"/>
        </linearGradient>
        <linearGradient id="paint2_linear_2121_1994" x1="0.799516" y1="35.7231" x2="34.4114" y2="2.09665"
                        gradientUnits="userSpaceOnUse">
            <stop offset="0.102083" stop-color="#17AEFF"/>
            <stop offset="0.440625" stop-color="#B263FE"/>
            <stop offset="0.89375" stop-color="#F97ACE"/>
        </linearGradient>
        <linearGradient id="paint3_linear_2121_1994" x1="0.799516" y1="35.7231" x2="34.4114" y2="2.09665"
                        gradientUnits="userSpaceOnUse">
            <stop offset="0.102083" stop-color="#17AEFF"/>
            <stop offset="0.440625" stop-color="#B263FE"/>
            <stop offset="0.89375" stop-color="#F97ACE"/>
        </linearGradient>
        <linearGradient id="paint4_linear_2121_1994" x1="0.799516" y1="35.7231" x2="34.4114" y2="2.09665"
                        gradientUnits="userSpaceOnUse">
            <stop offset="0.102083" stop-color="#17AEFF"/>
            <stop offset="0.440625" stop-color="#B263FE"/>
            <stop offset="0.89375" stop-color="#F97ACE"/>
        </linearGradient>
        <linearGradient id="paint5_linear_2121_1994" x1="0.799516" y1="35.7231" x2="34.4114" y2="2.09665"
                        gradientUnits="userSpaceOnUse">
            <stop offset="0.102083" stop-color="#17AEFF"/>
            <stop offset="0.440625" stop-color="#B263FE"/>
            <stop offset="0.89375" stop-color="#F97ACE"/>
        </linearGradient>
        <linearGradient id="paint6_linear_2121_1994" x1="0.799516" y1="35.7231" x2="34.4114" y2="2.09665"
                        gradientUnits="userSpaceOnUse">
            <stop offset="0.102083" stop-color="#17AEFF"/>
            <stop offset="0.440625" stop-color="#B263FE"/>
            <stop offset="0.89375" stop-color="#F97ACE"/>
        </linearGradient>
        <linearGradient id="paint7_linear_2121_1994" x1="0.799516" y1="35.7231" x2="34.4114" y2="2.09665"
                        gradientUnits="userSpaceOnUse">
            <stop offset="0.102083" stop-color="#17AEFF"/>
            <stop offset="0.440625" stop-color="#B263FE"/>
            <stop offset="0.89375" stop-color="#F97ACE"/>
        </linearGradient>
        <clipPath id="clip0_2121_1994">
            <rect width="35.9512" height="35.9512" fill="white" transform="translate(0 0.487793)"/>
        </clipPath>
    </defs>
</svg>
