<svg width="255" height="55" viewBox="0 0 255 55" fill="none" xmlns="http://www.w3.org/2000/svg">
    <g clip-path="url(#clip0_2121_1185)">
        <path d="M48.1409 7.23441C45.7937 4.90559 41.9982 4.90559 39.6509 7.23441C39.551 7.33351 39.4512 7.43261 39.3513 7.58126L8.13799 43.4551C7.28899 44.4461 7.33893 45.8831 8.23787 46.8245C9.18676 47.766 10.6351 47.766 11.6339 46.9236L47.8413 15.9056C47.9412 15.8065 48.041 15.7074 48.1909 15.6083C50.4882 13.329 50.4882 9.56324 48.1409 7.23441Z"
              fill="url(#paint0_linear_2121_1185)"/>
        <path d="M10.0361 47.5184C11.4152 47.5184 12.5332 46.4092 12.5332 45.041C12.5332 43.6727 11.4152 42.5635 10.0361 42.5635C8.65704 42.5635 7.53906 43.6727 7.53906 45.041C7.53906 46.4092 8.65704 47.5184 10.0361 47.5184Z"
              fill="#FAFAFA"/>
        <path d="M43.8979 48.7566C45.9666 48.7566 47.6435 47.0928 47.6435 45.0404C47.6435 42.988 45.9666 41.3242 43.8979 41.3242C41.8293 41.3242 40.1523 42.988 40.1523 45.0404C40.1523 47.0928 41.8293 48.7566 43.8979 48.7566Z"
              fill="#FAFAFA"/>
        <path d="M10.0386 15.1624C12.1072 15.1624 13.7842 13.4986 13.7842 11.4462C13.7842 9.39379 12.1072 7.72998 10.0386 7.72998C7.96993 7.72998 6.29297 9.39379 6.29297 11.4462C6.29297 13.4986 7.96993 15.1624 10.0386 15.1624Z"
              fill="#FAFAFA"/>
        <path d="M26.9691 55.0006C28.624 55.0006 29.9656 53.6696 29.9656 52.0277C29.9656 50.3857 28.624 49.0547 26.9691 49.0547C25.3142 49.0547 23.9727 50.3857 23.9727 52.0277C23.9727 53.6696 25.3142 55.0006 26.9691 55.0006Z"
              fill="#FAFAFA"/>
        <path d="M2.99647 31.2169C4.65138 31.2169 5.99295 29.8859 5.99295 28.244C5.99295 26.602 4.65138 25.271 2.99647 25.271C1.34157 25.271 0 26.602 0 28.244C0 29.8859 1.34157 31.2169 2.99647 31.2169Z"
              fill="#FAFAFA"/>
        <path d="M50.94 32.7036C53.4224 32.7036 55.4347 30.707 55.4347 28.2441C55.4347 25.7812 53.4224 23.7847 50.94 23.7847C48.4577 23.7847 46.4453 25.7812 46.4453 28.2441C46.4453 30.707 48.4577 32.7036 50.94 32.7036Z"
              fill="#FAFAFA"/>
        <path d="M26.9674 8.91941C29.4497 8.91941 31.4621 6.92284 31.4621 4.45995C31.4621 1.99706 29.4497 0.000488281 26.9674 0.000488281C24.485 0.000488281 22.4727 1.99706 22.4727 4.45995C22.4727 6.92284 24.485 8.91941 26.9674 8.91941Z"
              fill="#FAFAFA"/>
        <path d="M81.0781 37.8061V9.87207H92.9143C94.6521 9.87207 96.2021 10.1519 97.5172 10.7581C98.8324 11.3644 99.8657 12.2038 100.617 13.323C101.369 14.4422 101.744 15.7946 101.744 17.3336V17.7533C101.744 19.5254 101.322 20.9244 100.476 21.9504C99.6308 23.023 98.5975 23.7225 97.3763 24.1888V24.8417C98.4096 24.8884 99.2081 25.2148 99.8187 25.8677C100.429 26.4739 100.758 27.4066 100.758 28.5725V37.8527H96.39V29.1321C96.39 28.4326 96.2021 27.8263 95.8263 27.4066C95.4506 26.9869 94.84 26.7537 93.9946 26.7537H85.3993V37.8061H81.0781ZM85.3993 22.8831H92.3976C93.9476 22.8831 95.1688 22.51 96.0142 21.7172C96.8597 20.9244 97.2824 19.8518 97.2824 18.4994V18.173C97.2824 16.8206 96.8597 15.748 96.0142 14.9552C95.1688 14.1624 93.9476 13.7894 92.3507 13.7894H85.3523V22.8831H85.3993Z"
              fill="#FAFAFA"/>
        <path d="M114.098 38.3651C112.079 38.3651 110.341 37.9454 108.838 37.106C107.335 36.2666 106.16 35.1007 105.315 33.5618C104.47 32.0228 104.047 30.2507 104.047 28.2454V27.7791C104.047 25.7272 104.47 23.9551 105.315 22.4161C106.16 20.8772 107.288 19.7113 108.791 18.8719C110.294 18.0325 111.985 17.6128 113.957 17.6128C115.883 17.6128 117.527 18.0325 118.983 18.8719C120.439 19.7113 121.519 20.8772 122.365 22.3695C123.163 23.8618 123.586 25.5873 123.586 27.5926V29.1315H108.321C108.368 30.857 108.979 32.256 110.059 33.282C111.186 34.3079 112.548 34.8209 114.239 34.8209C115.789 34.8209 116.963 34.4945 117.762 33.7949C118.56 33.0954 119.171 32.3026 119.594 31.4166L123.022 33.1887C122.647 33.9348 122.083 34.7276 121.378 35.567C120.674 36.4065 119.734 37.106 118.56 37.6656C117.339 38.0853 115.883 38.3651 114.098 38.3651ZM108.274 25.9604H119.265C119.171 24.4681 118.607 23.3022 117.668 22.4628C116.681 21.6234 115.46 21.2036 113.863 21.2036C112.313 21.2036 111.045 21.6234 110.059 22.4628C109.12 23.3022 108.509 24.4681 108.274 25.9604Z"
              fill="#FAFAFA"/>
        <path d="M133.495 38.3654C132.086 38.3654 130.818 38.1322 129.691 37.6659C128.564 37.1995 127.671 36.5 127.014 35.5673C126.356 34.6346 126.027 33.5154 126.027 32.163C126.027 30.8106 126.356 29.6914 127.014 28.8053C127.671 27.9193 128.564 27.2197 129.691 26.8C130.818 26.3337 132.133 26.1005 133.589 26.1005H139.648V24.7947C139.648 23.6289 139.32 22.7428 138.615 22.0433C137.91 21.3438 136.83 21.0174 135.374 21.0174C133.965 21.0174 132.885 21.3438 132.133 21.9967C131.382 22.6496 130.865 23.5356 130.63 24.6082L126.779 23.3491C127.108 22.2765 127.624 21.2972 128.329 20.4577C129.033 19.5717 129.973 18.8722 131.147 18.3592C132.321 17.8462 133.73 17.5664 135.421 17.5664C138.004 17.5664 140.024 18.2193 141.48 19.5251C142.936 20.8308 143.688 22.6962 143.688 25.0746V33.1889C143.688 33.9817 144.063 34.4014 144.815 34.4014H146.506V37.8524H143.406C142.466 37.8524 141.715 37.6192 141.104 37.1529C140.494 36.6865 140.212 36.0336 140.212 35.1942V35.0543H139.601C139.367 35.474 139.085 35.9404 138.615 36.4534C138.192 36.9663 137.535 37.4327 136.736 37.8524C135.985 38.1788 134.857 38.3654 133.495 38.3654ZM134.106 35.0077C135.75 35.0077 137.112 34.5413 138.145 33.6087C139.179 32.676 139.695 31.3702 139.695 29.6914V29.2717H133.918C132.838 29.2717 131.945 29.5048 131.241 29.9712C130.583 30.4375 130.255 31.137 130.255 32.0231C130.255 32.9091 130.583 33.6553 131.288 34.1683C131.945 34.7279 132.885 35.0077 134.106 35.0077Z"
              fill="#FAFAFA"/>
        <path d="M157.495 38.3657C155.851 38.3657 154.348 37.946 152.939 37.1532C151.53 36.3604 150.403 35.1946 149.557 33.7023C148.712 32.21 148.289 30.3912 148.289 28.246V27.6398C148.289 25.5412 148.712 23.7225 149.557 22.1836C150.403 20.6446 151.483 19.5254 152.892 18.686C154.301 17.8932 155.804 17.4735 157.495 17.4735C158.763 17.4735 159.843 17.6134 160.736 17.9398C161.628 18.2663 162.333 18.686 162.896 19.1523C163.46 19.6653 163.883 20.1783 164.165 20.6913H164.822V9.87207H168.955V37.8527H164.869V35.0547H164.212C163.695 35.8941 162.943 36.6869 161.91 37.3864C160.924 38.0393 159.421 38.3657 157.495 38.3657ZM158.669 34.7749C160.454 34.7749 161.957 34.2152 163.131 33.0494C164.305 31.8835 164.869 30.2513 164.869 28.1528V27.7797C164.869 25.6811 164.305 24.0489 163.131 22.8831C161.957 21.7172 160.501 21.1576 158.669 21.1576C156.884 21.1576 155.428 21.7172 154.254 22.8831C153.08 24.0489 152.516 25.6345 152.516 27.7797V28.1528C152.516 30.2979 153.08 31.9302 154.254 33.0494C155.428 34.2152 156.884 34.7749 158.669 34.7749Z"
              fill="#FAFAFA"/>
        <path d="M173.418 45.8268V42.3292H177.129C177.692 42.3292 178.115 42.236 178.35 42.0494C178.585 41.8629 178.819 41.5365 179.007 41.1167L179.759 39.298L171.445 18.126H175.954L181.497 33.3288H182.107L187.65 18.126H192.159L182.483 42.609C182.06 43.7283 181.497 44.5211 180.792 45.034C180.088 45.547 179.054 45.7802 177.598 45.7802H173.418V45.8268Z"
              fill="#FAFAFA"/>
        <path d="M204.983 38.3653C202.869 38.3653 200.99 37.9922 199.346 37.246C197.703 36.4999 196.434 35.3807 195.495 33.935C194.556 32.4893 194.086 30.7172 194.086 28.6187V27.6394H198.407V28.6187C198.407 30.5773 199.018 32.0696 200.192 33.0489C201.366 34.0283 202.963 34.5413 204.983 34.5413C207.002 34.5413 208.505 34.1215 209.539 33.2821C210.572 32.4427 211.089 31.3701 211.089 30.0177C211.089 29.1317 210.854 28.4321 210.384 27.8725C209.914 27.3129 209.21 26.8466 208.318 26.5201C207.425 26.1937 206.392 25.8672 205.124 25.5874L203.621 25.261C201.836 24.8413 200.239 24.3283 198.924 23.6754C197.609 23.0692 196.575 22.2298 195.824 21.1572C195.119 20.1312 194.743 18.7788 194.743 17.1466C194.743 15.5144 195.166 14.0687 195.965 12.9029C196.763 11.737 197.937 10.8043 199.346 10.1981C200.756 9.59183 202.493 9.21875 204.466 9.21875C206.439 9.21875 208.177 9.54519 209.727 10.1981C211.277 10.851 212.498 11.8303 213.39 13.136C214.283 14.4418 214.705 16.074 214.705 18.0327V19.4783H210.384V18.0327C210.384 16.8202 210.149 15.8408 209.633 15.0947C209.116 14.3485 208.458 13.7889 207.566 13.4625C206.674 13.136 205.64 12.9495 204.466 12.9495C202.728 12.9495 201.413 13.3226 200.474 14.0221C199.534 14.7216 199.065 15.7009 199.065 16.9601C199.065 17.7995 199.253 18.499 199.675 19.0586C200.098 19.6182 200.709 20.0379 201.507 20.411C202.305 20.7375 203.339 21.0639 204.513 21.3437L206.016 21.7168C207.848 22.1365 209.445 22.6495 210.854 23.2557C212.263 23.862 213.343 24.748 214.142 25.774C214.94 26.7999 215.363 28.199 215.363 29.8778C215.363 31.5566 214.94 33.0023 214.095 34.2614C213.249 35.5206 212.028 36.4999 210.478 37.1994C208.928 38.0388 207.096 38.3653 204.983 38.3653Z"
              fill="#FAFAFA"/>
        <path d="M227.997 38.3651C225.977 38.3651 224.239 37.9454 222.736 37.106C221.233 36.2666 220.059 35.1007 219.213 33.5618C218.368 32.0228 217.945 30.2507 217.945 28.2454V27.7791C217.945 25.7272 218.368 23.9551 219.213 22.4161C220.059 20.8772 221.186 19.7113 222.689 18.8719C224.192 18.0325 225.883 17.6128 227.856 17.6128C229.781 17.6128 231.425 18.0325 232.881 18.8719C234.337 19.7113 235.418 20.8772 236.263 22.3695C237.062 23.8618 237.484 25.5873 237.484 27.5926V29.1315H222.219C222.266 30.857 222.877 32.256 223.957 33.282C225.085 34.3079 226.447 34.8209 228.138 34.8209C229.688 34.8209 230.862 34.4945 231.66 33.7949C232.459 33.0954 233.069 32.3026 233.492 31.4166L236.921 33.1887C236.545 33.9348 235.981 34.7276 235.277 35.567C234.572 36.4065 233.633 37.106 232.459 37.6656C231.237 38.0853 229.781 38.3651 227.997 38.3651ZM222.173 25.9604H233.163C233.069 24.4681 232.506 23.3022 231.566 22.4628C230.58 21.6234 229.359 21.2036 227.762 21.2036C226.212 21.2036 224.944 21.6234 223.957 22.4628C222.971 23.3022 222.407 24.4681 222.173 25.9604Z"
              fill="#FAFAFA"/>
        <path d="M244.438 37.8057C243.216 37.8057 242.277 37.4326 241.572 36.7331C240.868 36.0336 240.492 35.0543 240.492 33.8418V11.5972H244.625V18.126H252.516V21.6236H244.625V33.1889C244.625 33.9817 245.001 34.4014 245.753 34.4014H251.906V37.899H244.438V37.8057Z"
              fill="#FAFAFA"/>
    </g>
    <defs>
        <linearGradient id="paint0_linear_2121_1185" x1="8.24956" y1="46.813" x2="47.84" y2="6.9096"
                        gradientUnits="userSpaceOnUse">
            <stop offset="0.1" stop-color="white" stop-opacity="0"/>
            <stop offset="0.8" stop-color="white"/>
        </linearGradient>
        <clipPath id="clip0_2121_1185">
            <rect width="255" height="55" fill="white" transform="translate(0 0.000488281)"/>
        </clipPath>
    </defs>
</svg>
